<svg xmlns="http://www.w3.org/2000/svg" viewBox="0 0 45 45"><defs><clipPath id="a"><path fill="#1cbeff" d="M0 0h33.356v32.527H0z" data-name="Rectangle 607"/></clipPath></defs><g data-name="Group 455" transform="translate(-150 -1059)"><rect width="45" height="45" fill="#111" data-name="Rectangle 603" rx="6" transform="translate(150 1059)"/><g data-name="Group 454"><g clip-path="url(#a)" data-name="Group 453" transform="translate(155.821 1064.736)"><path fill="#1cbeff" d="M11.72 32.527a4.3 4.3 0 0 1-2.585-1.78C6.399 27.343 3.612 23.974.857 20.582a3.326 3.326 0 0 1-.453-3.817 3.309 3.309 0 0 1 3.226-1.91 3.358 3.358 0 0 1 2.242.945q2.938 2.677 5.878 5.351c.614.56.993.544 1.533-.067L31.548.447a1.01 1.01 0 0 1 1.145-.392.922.922 0 0 1 .662.89 1.408 1.408 0 0 1-.217.648q-4.217 6.817-8.45 13.625c-3.106 5-6.229 10-9.308 15.014a4.236 4.236 0 0 1-2.917 2.295Z" data-name="Path 394"/></g></g></g></svg>