<svg xmlns="http://www.w3.org/2000/svg" viewBox="0 0 122.92 122.88"><path d="M61.45 0C44.76 0 42.66.07 36.11.37c-5.1.1-10.14 1.07-14.91 2.86a29.79 29.79 0 0 0-10.88 7.08 30.183 30.183 0 0 0-7.1 10.88A45.037 45.037 0 0 0 .37 36.11C.08 42.66 0 44.75 0 61.44s.07 18.77.37 25.33c.1 5.1 1.07 10.14 2.86 14.91 1.54 4.1 3.96 7.81 7.08 10.88 3.07 3.13 6.78 5.55 10.88 7.1 4.78 1.79 9.82 2.75 14.92 2.85 6.55.3 8.64.37 25.33.37s18.77-.07 25.33-.37c5.1-.1 10.14-1.06 14.92-2.85 8.26-3.2 14.8-9.74 18-18 1.78-4.78 2.75-9.82 2.86-14.91.29-6.55.37-8.64.37-25.33s-.08-18.78-.37-25.33a45.56 45.56 0 0 0-2.86-14.92c-1.54-4.1-3.96-7.81-7.09-10.88a29.79 29.79 0 0 0-10.88-7.08A45.004 45.004 0 0 0 86.76.37C80.2.07 78.12 0 61.43 0h.02Zm-5.52 11.07h5.52c16.4 0 18.34.06 24.82.36 3.9.04 7.76.76 11.41 2.11 2.67.99 5.08 2.56 7.06 4.6 2.04 1.98 3.61 4.39 4.6 7.06 1.35 3.65 2.07 7.51 2.11 11.41.3 6.47.36 8.42.36 24.82s-.06 18.34-.36 24.82c-.04 3.89-.76 7.75-2.11 11.4-2.07 5.35-6.3 9.58-11.66 11.65a33.669 33.669 0 0 1-11.41 2.12c-6.47.3-8.42.36-24.82.36s-18.35-.06-24.83-.36c-3.9-.05-7.76-.76-11.41-2.12-2.67-.98-5.09-2.55-7.07-4.59a18.926 18.926 0 0 1-4.59-7.06 33.913 33.913 0 0 1-2.12-11.41c-.29-6.48-.35-8.42-.35-24.83s.06-18.34.35-24.82c.04-3.9.76-7.76 2.12-11.41.98-2.67 2.55-5.08 4.59-7.06a19.11 19.11 0 0 1 7.07-4.6c3.65-1.35 7.51-2.07 11.41-2.12 5.67-.25 7.86-.33 19.31-.34Zm38.31 10.21c-4.08 0-7.38 3.3-7.38 7.38s3.3 7.38 7.38 7.38 7.38-3.3 7.38-7.38-3.3-7.38-7.37-7.38h-.01ZM61.45 29.9c-17.42 0-31.55 14.13-31.55 31.55S44.03 93 61.45 93 93 78.87 93 61.45 78.87 29.91 61.45 29.9Zm0 11.07c11.31-.02 20.49 9.14 20.51 20.45.02 11.31-9.14 20.49-20.45 20.51-11.31.02-20.49-9.14-20.51-20.45v-.03c.02-11.28 9.17-20.42 20.45-20.44v-.04Z"/></svg>