<svg xmlns="http://www.w3.org/2000/svg" xmlns:xlink="http://www.w3.org/1999/xlink" viewBox="0 0 146.929 125.079">
  <defs>
    <path id="reuse-0" fill="#f1b342" d="M123.422 9.677S117.2 8.103 114.558 0c0 0 7.594 1.88 8.864 9.677Z" data-name="Path 11"/>
    <path id="reuse-1" fill="#f1b342" d="M127.028 2.921s4.622 6.959.711 12.572c0 0-3.53-4.203-.711-12.572Z" data-name="Path 12"/>
    <path id="reuse-2" fill="#f1b342" d="M115.644 11.97s5.755 6.056 12.1 3.493c0-.001-3.31-4.378-12.1-3.493Z" data-name="Path 13"/>
    <path id="reuse-3" fill="#f1b342" d="M133.951 11.947s3.893 7.392-.566 12.58c-.001 0-3.087-4.54.566-12.58Z" data-name="Path 14"/>
    <path id="reuse-4" fill="#f1b342" d="M121.71 19.796s5.111 6.608 11.682 4.7c.001.001-2.85-4.689-11.682-4.7Z" data-name="Path 15"/>
    <path id="reuse-5" fill="#f1b342" d="M139.538 22.073s2.747 7.89-2.437 12.354c.002 0-2.373-4.949 2.437-12.354Z" data-name="Path 16"/>
    <path id="reuse-6" fill="#f1b342" d="M126.265 28.008s4.069 7.3 10.85 6.391c0 0-2.119-5.064-10.85-6.391Z" data-name="Path 17"/>
    <path id="reuse-7" fill="#f1b342" d="M143.804 33.1s1.374 8.241-4.491 11.764c0 0-1.503-5.279 4.491-11.764Z" data-name="Path 18"/>
    <path id="reuse-8" fill="#f1b342" d="M129.717 36.706s2.776 7.879 9.613 8.133c0-.004-1.233-5.349-9.613-8.133Z" data-name="Path 19"/>
    <path id="reuse-9" fill="#f1b342" d="M146.362 44.837s-.157 8.353-6.566 10.744c-.001.005-.513-5.464 6.566-10.744Z" data-name="Path 20"/>
    <path id="reuse-10" fill="#f1b342" d="M131.854 45.806s1.289 8.254 7.964 9.754c0 0-.234-5.482-7.964-9.754Z" data-name="Path 21"/>
    <path id="reuse-11" fill="#f1b342" d="M146.929 56.458s-1.653 8.189-8.388 9.392c0 0 .478-5.472 8.388-9.392Z" data-name="Path 22"/>
    <path id="reuse-12" fill="#f1b342" d="M132.483 54.807s-.214 8.352 6.084 11.025c0 0 .754-5.437-6.084-11.025Z" data-name="Path 23"/>
    <path id="reuse-13" fill="#f1b342" d="M145.128 68.53s-3.3 7.676-10.135 7.472c0 0 1.588-5.254 10.135-7.472Z" data-name="Path 24"/>
    <path id="reuse-14" fill="#f1b342" d="M131.328 63.952s-1.922 8.131 3.694 12.038c0 0 1.853-5.166-3.694-12.038Z" data-name="Path 25"/>
    <path id="reuse-15" fill="#f1b342" d="M140.72 78.435s-4.093 7.283-10.871 6.354c-.002 0 2.137-5.056 10.871-6.354Z" data-name="Path 26"/>
    <path id="reuse-16" fill="#f1b342" d="M127.484 72.417s-2.774 7.881 2.394 12.363c0 0 2.392-4.942-2.394-12.363Z" data-name="Path 27"/>
    <path id="reuse-17" fill="#f1b342" d="M135.838 88.331s-5.729 6.081-12.083 3.545c0 0 3.293-4.392 12.083-3.545Z" data-name="Path 28"/>
    <path id="reuse-18" fill="#f1b342" d="M122.263 79.723s-2.85 7.854 2.275 12.386c0-.001 2.439-4.919-2.275-12.386Z" data-name="Path 29"/>
    <path id="reuse-19" fill="#f1b342" d="m121.646 94.675-.765-.744c25.707-26.45 18.247-50.508 15.061-60.781-3.982-12.842-14.064-24.428-14.165-24.544l.8-.7c.1.117 10.332 11.869 14.383 24.932 2.243 7.233 4.373 16.015 3.169 26.3-1.456 12.461-7.676 24.417-18.483 35.537Z" data-name="Path 30"/>
    <path id="reuse-20" fill="#f1b342" d="M23.507 9.677S29.729 8.103 32.371 0c0 0-7.594 1.88-8.864 9.677Z" data-name="Path 31"/>
    <path id="reuse-21" fill="#f1b342" d="M19.901 2.921s-4.622 6.959-.711 12.572c0 0 3.53-4.203.711-12.572Z" data-name="Path 32"/>
    <path id="reuse-22" fill="#f1b342" d="M31.284 11.97s-5.756 6.058-12.1 3.492c0 0 3.312-4.377 12.1-3.492Z" data-name="Path 33"/>
    <path id="reuse-23" fill="#f1b342" d="M12.979 11.947s-3.893 7.392.566 12.58c0 0 3.085-4.54-.566-12.58Z" data-name="Path 34"/>
    <path id="reuse-24" fill="#f1b342" d="M25.218 19.796s-5.112 6.611-11.682 4.701c0 0 2.851-4.69 11.682-4.701Z" data-name="Path 35"/>
    <path id="reuse-25" fill="#f1b342" d="M7.39 22.073s-2.747 7.89 2.437 12.354c0 0 2.374-4.949-2.437-12.354Z" data-name="Path 36"/>
    <path id="reuse-26" fill="#f1b342" d="M20.664 28.008s-4.069 7.3-10.85 6.391c0 0 2.119-5.064 10.85-6.391Z" data-name="Path 37"/>
    <path id="reuse-27" fill="#f1b342" d="M3.125 33.1s-1.374 8.241 4.491 11.764c0 0 1.503-5.279-4.491-11.764Z" data-name="Path 38"/>
    <path id="reuse-28" fill="#f1b342" d="M17.211 36.706s-2.777 7.879-9.613 8.133c.001-.004 1.234-5.349 9.613-8.133Z" data-name="Path 39"/>
    <path id="reuse-29" fill="#f1b342" d="M.567 44.837s.157 8.349 6.566 10.749c0 0 .517-5.469-6.566-10.749Z" data-name="Path 40"/>
    <path id="reuse-30" fill="#f1b342" d="M15.076 45.806s-1.289 8.254-7.964 9.754c0 0 .234-5.482 7.964-9.754Z" data-name="Path 41"/>
    <path id="reuse-31" fill="#f1b342" d="M0 56.458s1.653 8.189 8.388 9.392c0 0-.477-5.472-8.388-9.392Z" data-name="Path 42"/>
    <path id="reuse-32" fill="#f1b342" d="M14.447 54.807s.214 8.352-6.084 11.025c0 0-.754-5.437 6.084-11.025Z" data-name="Path 43"/>
    <path id="reuse-33" fill="#f1b342" d="M1.801 68.53s3.3 7.676 10.135 7.472c-.001 0-1.588-5.254-10.135-7.472Z" data-name="Path 44"/>
    <path id="reuse-34" fill="#f1b342" d="M15.601 63.952s1.922 8.131-3.694 12.038c.001 0-1.848-5.166 3.694-12.038Z" data-name="Path 45"/>
    <path id="reuse-35" fill="#f1b342" d="M6.209 78.435s4.093 7.283 10.871 6.354c0 0-2.137-5.056-10.871-6.354Z" data-name="Path 46"/>
    <path id="reuse-36" fill="#f1b342" d="M19.446 72.417s2.774 7.881-2.394 12.363c-.001 0-2.392-4.942 2.394-12.363Z" data-name="Path 47"/>
    <path id="reuse-37" fill="#f1b342" d="M11.092 88.331s5.729 6.081 12.083 3.545c0 0-3.294-4.392-12.083-3.545Z" data-name="Path 48"/>
    <path id="reuse-38" fill="#f1b342" d="M24.666 79.723s2.85 7.854-2.275 12.386c0-.001-2.439-4.919 2.275-12.386Z" data-name="Path 49"/>
    <path id="reuse-39" fill="#f1b342" d="m25.284 94.675.765-.744C.342 67.481 7.802 43.424 10.987 33.15 14.969 20.308 25.051 8.722 25.152 8.606l-.8-.7c-.104.114-10.335 11.866-14.384 24.931-2.337 7.538-4.778 12.557-3.169 26.3 1.458 12.462 7.677 24.418 18.485 35.538Z" data-name="Path 50"/>
  </defs>
  <g data-name="Group 1">
    <path fill="#202021" d="M114.762 15.393c-9.454 0-21.07-.383-27.04-3.368C81.846 9.087 73.744 1.269 73.663 1.19l-.747-.724-.742.729c-.1.1-9.761 9.516-18.526 12.7-7.29 2.647-19.024 2.853-22.446 2.853-.715 0-1.123-.009-1.13-.009l-1.089-.023v46.3a43.036 43.036 0 0 0 6.473 21.086 34.8 34.8 0 0 0 12.68 11.949c6.294 3.466 13.975 5.223 22.829 5.223q.624 0 1.261-.012c17.04-.311 29.523-5.507 37.1-15.442a37.2 37.2 0 0 0 7.311-21.689V15.389Z" data-name="Path 4"/>
    <path fill="#1cbeff" d="M107.621 84.525c-7.165 9.391-19.091 14.3-35.446 14.6q-.617.011-1.222.011c-15.533 0-26.875-5.444-33.712-16.181A40.685 40.685 0 0 1 31.1 63.009v-11.07h83.395V64.13a34.981 34.981 0 0 1-6.874 20.395Z" data-name="Path 5"/>
    <path fill="#f1b342" d="M104.741 51.929V78.4H41.997V51.92Z" data-name="Path 6"/>
    <path fill="#202021" d="M104.151 68.175v8.172h-1.3v-5.613l-1.1-1.473v-5.4h-1.092v-3.759h-1.124v3.797h-.9v5.181l-1.13 1.778v5.575h-1.486V58.974a22.786 22.786 0 0 0-10.642.368v3.975h-.419v13.067h-1.226V62.318h-.943c-1.1 0-1.276-2.187-1.276-2.187h-.5v1h-1.168v-1.219h-1.041v1.168h-1.092v-.61h-.521a1.842 1.842 0 0 1-1.079 1.93h-1.13v6.769h-4.864v-1.435l-.254-.012v-2.274a2.437 2.437 0 0 0-1.856-2.365v-.492a.708.708 0 1 0-1.4 0v.464a2.438 2.438 0 0 0-1.977 2.393v2.021l-.3-.015c0 1.283-.076 8.889-.076 8.889h-1.162V58.27a2.225 2.225 0 0 0-2.476-2.476c-1.029 0-4.933-.133-4.933-.133l-.444.368-2.87.229v20h-.725v-3.059h-.394v-7.924a2.664 2.664 0 0 1-2.857-2.876h-.381a3.4 3.4 0 0 1-2.717 2.908v7.835h-.419v3.2h-.927v-4.043h-.927V69.01h-1.027v9.4h62.749V68.175Z" data-name="Path 7"/>
    <path fill="#202021" d="M114.495 17.525v32.28H74.076v-45.3c2.824 2.563 8.243 7.212 12.679 9.43 6.279 3.138 17.521 3.583 27.74 3.59Z" data-name="Path 8"/>
    <path fill="#fff" d="M114.494 17.526h-.076v32.2H74.149V4.502h-.076l-.051.056c2.827 2.565 8.246 7.216 12.7 9.442 6.309 3.152 17.55 3.592 27.776 3.6v-.152c-10.219-.005-21.455-.456-27.708-3.585-4.422-2.211-9.84-6.858-12.662-9.419l-.127-.116v45.554h40.573V17.449h-.076Z" data-name="Path 9"/>
    <path fill="#1cbeff" d="M31.186 18.88c3.511 0 15.558-.215 23.174-2.981 7.033-2.554 14.34-8.664 17.58-11.585v45.492H31.102V18.88Z" data-name="Path 10"/>
    <use xlink:href="#reuse-0" data-name="Path 11"/>
    <use xlink:href="#reuse-1" data-name="Path 12"/>
    <use xlink:href="#reuse-2" data-name="Path 13"/>
    <use xlink:href="#reuse-3" data-name="Path 14"/>
    <use xlink:href="#reuse-4" data-name="Path 15"/>
    <use xlink:href="#reuse-5" data-name="Path 16"/>
    <use xlink:href="#reuse-6" data-name="Path 17"/>
    <use xlink:href="#reuse-7" data-name="Path 18"/>
    <use xlink:href="#reuse-8" data-name="Path 19"/>
    <use xlink:href="#reuse-9" data-name="Path 20"/>
    <use xlink:href="#reuse-10" data-name="Path 21"/>
    <use xlink:href="#reuse-11" data-name="Path 22"/>
    <use xlink:href="#reuse-12" data-name="Path 23"/>
    <use xlink:href="#reuse-13" data-name="Path 24"/>
    <use xlink:href="#reuse-14" data-name="Path 25"/>
    <use xlink:href="#reuse-15" data-name="Path 26"/>
    <use xlink:href="#reuse-16" data-name="Path 27"/>
    <use xlink:href="#reuse-17" data-name="Path 28"/>
    <use xlink:href="#reuse-18" data-name="Path 29"/>
    <use xlink:href="#reuse-19" data-name="Path 30"/>
    <use xlink:href="#reuse-20" data-name="Path 31"/>
    <use xlink:href="#reuse-21" data-name="Path 32"/>
    <use xlink:href="#reuse-22" data-name="Path 33"/>
    <use xlink:href="#reuse-23" data-name="Path 34"/>
    <use xlink:href="#reuse-24" data-name="Path 35"/>
    <use xlink:href="#reuse-25" data-name="Path 36"/>
    <use xlink:href="#reuse-26" data-name="Path 37"/>
    <use xlink:href="#reuse-27" data-name="Path 38"/>
    <use xlink:href="#reuse-28" data-name="Path 39"/>
    <use xlink:href="#reuse-29" data-name="Path 40"/>
    <use xlink:href="#reuse-30" data-name="Path 41"/>
    <use xlink:href="#reuse-31" data-name="Path 42"/>
    <use xlink:href="#reuse-32" data-name="Path 43"/>
    <use xlink:href="#reuse-33" data-name="Path 44"/>
    <use xlink:href="#reuse-34" data-name="Path 45"/>
    <use xlink:href="#reuse-35" data-name="Path 46"/>
    <use xlink:href="#reuse-36" data-name="Path 47"/>
    <use xlink:href="#reuse-37" data-name="Path 48"/>
    <use xlink:href="#reuse-38" data-name="Path 49"/>
    <use xlink:href="#reuse-39" data-name="Path 50"/>
    <use xlink:href="#reuse-0" data-name="Path 51"/>
    <use xlink:href="#reuse-1" data-name="Path 52"/>
    <use xlink:href="#reuse-2" data-name="Path 53"/>
    <use xlink:href="#reuse-3" data-name="Path 54"/>
    <use xlink:href="#reuse-4" data-name="Path 55"/>
    <use xlink:href="#reuse-5" data-name="Path 56"/>
    <use xlink:href="#reuse-6" data-name="Path 57"/>
    <use xlink:href="#reuse-7" data-name="Path 58"/>
    <use xlink:href="#reuse-8" data-name="Path 59"/>
    <use xlink:href="#reuse-9" data-name="Path 60"/>
    <use xlink:href="#reuse-10" data-name="Path 61"/>
    <use xlink:href="#reuse-11" data-name="Path 62"/>
    <use xlink:href="#reuse-12" data-name="Path 63"/>
    <use xlink:href="#reuse-13" data-name="Path 64"/>
    <use xlink:href="#reuse-14" data-name="Path 65"/>
    <use xlink:href="#reuse-15" data-name="Path 66"/>
    <use xlink:href="#reuse-16" data-name="Path 67"/>
    <use xlink:href="#reuse-17" data-name="Path 68"/>
    <use xlink:href="#reuse-18" data-name="Path 69"/>
    <use xlink:href="#reuse-19" data-name="Path 70"/>
    <use xlink:href="#reuse-20" data-name="Path 71"/>
    <use xlink:href="#reuse-21" data-name="Path 72"/>
    <use xlink:href="#reuse-22" data-name="Path 73"/>
    <use xlink:href="#reuse-23" data-name="Path 74"/>
    <use xlink:href="#reuse-24" data-name="Path 75"/>
    <use xlink:href="#reuse-25" data-name="Path 76"/>
    <use xlink:href="#reuse-26" data-name="Path 77"/>
    <use xlink:href="#reuse-27" data-name="Path 78"/>
    <use xlink:href="#reuse-28" data-name="Path 79"/>
    <use xlink:href="#reuse-29" data-name="Path 80"/>
    <use xlink:href="#reuse-30" data-name="Path 81"/>
    <use xlink:href="#reuse-31" data-name="Path 82"/>
    <use xlink:href="#reuse-32" data-name="Path 83"/>
    <use xlink:href="#reuse-33" data-name="Path 84"/>
    <use xlink:href="#reuse-34" data-name="Path 85"/>
    <use xlink:href="#reuse-35" data-name="Path 86"/>
    <use xlink:href="#reuse-36" data-name="Path 87"/>
    <use xlink:href="#reuse-37" data-name="Path 88"/>
    <use xlink:href="#reuse-38" data-name="Path 89"/>
    <use xlink:href="#reuse-39" data-name="Path 90"/>
    <path fill="#fff" d="m87.636 66.555-6.629 11.3-6.362-11.248Z" data-name="Path 91"/>
    <path fill="#fff" d="m72.537 66.555-6.629 11.3-6.362-11.248Z" data-name="Path 92"/>
    <path fill="#fff" d="M79.788 78.277H67.165l6.248-11.048Z" data-name="Path 93"/>
    <path fill="#fff" d="m40.78 52.022-.286 35.392 1.378 1.454.565-36.827Z" data-name="Path 94"/>
    <path fill="#202021" d="M40.776 52.022h-.152l-.286 35.454 1.677 1.77.573-37.354-1.963-.023v.153h.152v.152l1.5.017-.557 36.3-1.078-1.138.285-35.331h-.152v.152Z" data-name="Path 95"/>
    <path fill="#fff" d="m106.345 51.946-.064 34.078-1.448 1.6-.013-35.678Z" data-name="Path 96"/>
    <path fill="#202021" d="M106.342 51.945h-.149l-.064 34.019-1.143 1.264-.012-35.13h1.371v-.304h-1.676l.013 36.226 1.752-1.936.064-34.289h-.153Z" data-name="Path 97"/>
    <path fill="#193356" d="M104.684 87.872c.057-3.305-.009-7.839-.009-7.839l-62.517.029-.148 8.848c6.893 6.826 16.593 10.231 28.942 10.231q.6 0 1.222-.011c15.126-.278 25.223-3.172 32.51-11.258Z" data-name="Path 98"/>
    <path fill="#1cbeff" d="M84.406 82.838a8.592 8.592 0 0 0-.021-2.5H62.407a8.58 8.58 0 0 0-.022 2.5Z" data-name="Path 99"/>
    <path fill="#1cbeff" d="M66.334 89.267a12.172 12.172 0 0 0 14.127 0Z" data-name="Path 100"/>
    <path fill="#1cbeff" d="M62.95 84.981a9.446 9.446 0 0 0 1.211 2.143h18.471a9.443 9.443 0 0 0 1.211-2.143Z" data-name="Path 101"/>
    <path fill="#fff" d="M42.09 78.328h62.671v1.6H42.09z" data-name="Rectangle 5"/>
    <path fill="#202021" d="M104.761 79.928v-.152H42.242v-1.3h62.366v1.448h.304v-1.752H41.938v1.9h62.976v-.152Z" data-name="Path 102"/>
    <path fill="#1cbeff" d="m117.403 83.127 14.22 13.208s-20.014 28.953-61.463 27.633c-37.386-1.219-55.774-27.735-55.774-27.735l14.223-13.207s14.325 19.912 40.636 20.522 38.709-10.975 48.158-20.421Z" data-name="Path 103"/>
    <path fill="#202021" d="m117.403 83.128-.726.782L130.9 97.117l.726-.782-.877-.607.21.145-.21-.145.21.145-.21-.145a62.865 62.865 0 0 1-14.368 13.656 73.135 73.135 0 0 1-18.039 9.327 76.309 76.309 0 0 1-25.439 4.234q-1.337 0-2.707-.043a73.185 73.185 0 0 1-41.311-14.119 71.1 71.1 0 0 1-10.255-9.11 52.047 52.047 0 0 1-2.542-2.959c-.28-.354-.489-.63-.626-.816l-.152-.209-.036-.05-.008-.011-.21.146.21-.146-.21.146.21-.146-.877.608.726.782 14.223-13.207-.726-.782-.866.623a52.182 52.182 0 0 0 10.685 10.269 56.223 56.223 0 0 0 12.982 7.161 52.439 52.439 0 0 0 17.811 3.535q1.014.024 2 .023c12.64 0 22.086-2.855 29.507-6.9s12.811-9.244 17.426-13.857l-.754-.754-.726.782.726-.782-.754-.754c-4.594 4.595-9.813 9.613-16.937 13.492s-16.164 6.636-28.487 6.639q-.962 0-1.952-.023a50.3 50.3 0 0 1-17.089-3.392 55.176 55.176 0 0 1-16.936-10.522 51.851 51.851 0 0 1-4.335-4.4 32.194 32.194 0 0 1-1.354-1.656l-.064-.086-.014-.02-.062.044.062-.044-.062.044.062-.044-.706-.981-15.79 14.655.527.76a64.958 64.958 0 0 0 14.113 13.663 75.333 75.333 0 0 0 42.5 14.53q1.4.045 2.775.044a78.429 78.429 0 0 0 26.233-4.385 75.366 75.366 0 0 0 25.059-14.805 56.66 56.66 0 0 0 8.308-8.946l.525-.76-15.653-14.535-.727.727Z" data-name="Path 104"/>
    <path fill="#202021" d="M100.851 28.237a4.98 4.98 0 0 0-.615-2.939c-.074-.161-.133-.288-.159-.369a1.256 1.256 0 0 1-.037-.537v-.035c.012-.094.027-.188.044-.285.024-.144.051-.292.062-.445a1.662 1.662 0 0 0-.5-1.558 4.924 4.924 0 0 0-1.5-.727c-1.034-2.43-2.761-3.724-3.616-3.724a.6.6 0 0 0-.241.045 14.047 14.047 0 0 0-1.831 1.161 12.648 12.648 0 0 0-3.289 3.715 8.484 8.484 0 0 0-.728 2.989v.049l-.022.233a2.238 2.238 0 0 1-.568 1.457 5.46 5.46 0 0 0-1.13 2.25c-.1.355-.2.664-.3.937a3.22 3.22 0 0 0-.277 1.312.9.9 0 0 0 .543.72 3.049 3.049 0 0 0-.739 2.818 2.514 2.514 0 0 0 1.475 1.632c-.071.2-.286.819-.633 2.094l-.07.256c-.436 1.584-.98 3.556.133 5.6a6.82 6.82 0 0 0 6.141 3.472 9.151 9.151 0 0 0 1.016-.058c3.552-.4 5.929-2.628 6.2-5.816a11.841 11.841 0 0 0-1.9-7.255 10.183 10.183 0 0 1-1.127-2.106 6.906 6.906 0 0 0 .677-1.7c2.096-.911 2.711-1.932 2.991-3.186Z" data-name="Path 105"/>
    <path fill="#fff" d="M97.711 31.341a6.971 6.971 0 0 1-.685 1.727 9.933 9.933 0 0 0-1.033 2.239l-.015.041a.073.073 0 0 0 .048.1l.031.005a.085.085 0 0 0 .078-.047l.018-.052a10.724 10.724 0 0 1 .924-2.065 10.992 10.992 0 0 0 1.1 2.012 11.7 11.7 0 0 1 1.875 7.166c-.267 3.112-2.588 5.288-6.056 5.678a8.939 8.939 0 0 1-1 .057 6.654 6.654 0 0 1-5.991-3.387c-1.086-1.994-.55-3.936-.12-5.5l.07-.257c.349-1.283.564-1.9.631-2.087a7.573 7.573 0 0 0 1.415.136 7.246 7.246 0 0 0 3.8-1.09 6.667 6.667 0 0 0 3.046-3.7 2.362 2.362 0 0 0-.61-2.052 2.941 2.941 0 0 0-2.091-.877 5.9 5.9 0 0 0-2.443.444 1.769 1.769 0 0 1-.33.108.177.177 0 0 1-.135-.029.348.348 0 0 1-.106-.232v-.011l.018-.012.016-.014a2.859 2.859 0 0 1 1.272-.7 8.348 8.348 0 0 0 .854-.341c.934-.45 2.065-1.774 1.669-2.992a2.894 2.894 0 0 0-1.782-1.58 6.156 6.156 0 0 1 4.343 1.529c1.4 1.393 1.593 4.3 1.187 5.779Z" data-name="Path 106"/>
    <path fill="#202021" d="M93.354 38.004a3.342 3.342 0 1 0 3.026 3.327 3.191 3.191 0 0 0-3.026-3.327Z" data-name="Path 107"/>
    <path fill="#fff" d="M100.082 25.356a4.867 4.867 0 0 1 .606 2.851c-.264 1.186-.843 2.157-2.775 3.018a7.808 7.808 0 0 0 .117-2.327 1.5 1.5 0 0 0 .317.035 1.021 1.021 0 0 0 .986-.641c.4-.893-.282-1.507-1.292-2.276a62.56 62.56 0 0 1-1.664-1.314 8.5 8.5 0 0 1 1.955-.9 11.064 11.064 0 0 1 1.538.6 1.343 1.343 0 0 0 .047.567c.029.092.084.222.165.387Z" data-name="Path 108"/>
    <path fill="#202021" d="M96.816 25.643c.034-.026.1-.081.229-.2.259.2.561.44.887.688.987.751 1.606 1.3 1.245 2.105a.929.929 0 0 1-1.163.5 5.658 5.658 0 0 0-1.198-3.093Z" data-name="Path 109"/>
    <path fill="#fff" d="M99.535 22.18a1.524 1.524 0 0 1 .448 1.437 4.318 4.318 0 0 1-.061.432c-.011.065-.022.129-.031.193a11.537 11.537 0 0 0-1.468-.571 7.382 7.382 0 0 0-.228-2.154 4.6 4.6 0 0 1 1.34.663Z" data-name="Path 110"/>
    <path fill="#fff" d="M93.977 18.001a4.061 4.061 0 0 1 .39-.2.413.413 0 0 1 .168-.03c.672 0 2.373 1.067 3.462 3.636v.011a7.734 7.734 0 0 1 .258 2.25 8.89 8.89 0 0 0-2.047.958c-.33-.259-2.238-1.823-2.55-3.514a5.107 5.107 0 0 1 .316-3.1Z" data-name="Path 111"/>
    <path fill="#fff" d="m95.784 24.48-.2.2a6.063 6.063 0 0 0-1.011-.436.57.57 0 0 1 .637-.3c.216.218.414.398.574.536Z" data-name="Path 112"/>
    <path fill="#fff" d="M89.327 22.6a12.5 12.5 0 0 1 3.247-3.664c.009-.006.6-.439 1.157-.786a5.4 5.4 0 0 0-.237 2.984 5.665 5.665 0 0 0 1.569 2.659.716.716 0 0 0-.642.4 6.94 6.94 0 0 0-3.456-.162 4.985 4.985 0 0 0-2.327 1.284 7.948 7.948 0 0 1 .689-2.715Z" data-name="Path 113"/>
    <path fill="#fff" d="M86.314 31.749a3.092 3.092 0 0 1 .271-1.253c.094-.275.2-.585.3-.945a5.192 5.192 0 0 1 1.1-2.19 2.387 2.387 0 0 0 .606-1.539l.022-.234v-.013a4.812 4.812 0 0 1 2.395-1.4 5.361 5.361 0 0 1 .767-.119l.013.006c.016 0 1.642.439 2.018 1.594.384 1.181-.81 2.443-1.587 2.817a8.23 8.23 0 0 1-.837.333 3.049 3.049 0 0 0-1.335.737 8.617 8.617 0 0 1-.955.545l-.08.033c-.361.148-.906.372-.947.945a.834.834 0 0 0 .018.821c.174.312.351.522.608.522a.6.6 0 0 0 .206-.04c.217-.079.719-.31.713-.747a2.268 2.268 0 0 0-.153-.711c.127-.089.263-.181.294-.2h.022a1.183 1.183 0 0 0 .785-.34 5.7 5.7 0 0 0 1.734.387l.472.03c.606.04.806.053.9-.021.131.073.464.291.438.6a1.356 1.356 0 0 1-.946 1.017.834.834 0 0 1-.68-.318 1.469 1.469 0 0 0-.157-.136.514.514 0 0 0-.466-.047.413.413 0 0 0-.266.358.35.35 0 0 0 .124.311 1.246 1.246 0 0 0 .914.141l.161-.02a2.3 2.3 0 0 1 1-.011l.025.048a3.962 3.962 0 0 1-.021.4 1.536 1.536 0 0 0-.008.333.451.451 0 0 1-.3.575 1.575 1.575 0 0 1-1.256-.1 1.955 1.955 0 0 1-.151-.184c-.108-.143-.211-.279-.386-.255a.779.779 0 0 0-.46.324.247.247 0 0 0-.034.245 1 1 0 0 0 1.176.546l.189-.04a4.206 4.206 0 0 0 1.1-.317 1.671 1.671 0 0 1 .035.744c-.042.092-.165.117-.516.175a10.424 10.424 0 0 0-1.187.257l-.569.157a26.8 26.8 0 0 0-3.716 1.2c.744-3.2-.776-4.331-.842-4.378l-.02-.009h-.007a.77.77 0 0 1-.524-.634Z" data-name="Path 114"/>
    <path fill="#fff" d="M93.719 30.187a.53.53 0 0 0-.141.372.187.187 0 0 1-.015.09 2.666 2.666 0 0 1-.788-.009l-.473-.03a5.5 5.5 0 0 1-1.729-.4.09.09 0 0 0-.1.019 1 1 0 0 1-.711.33.257.257 0 0 0-.066.009 3.1 3.1 0 0 0-.39.256.071.071 0 0 0-.027.086 2.215 2.215 0 0 1 .162.712c0 .345-.423.539-.608.606-.2.073-.356.03-.6-.411a.69.69 0 0 1-.014-.694l.01-.026a1.579 1.579 0 0 0 .455-.172l.072-.043a10.584 10.584 0 0 1 1.532-.794.411.411 0 0 0 .115 0 1.757 1.757 0 0 0 .375-.119 5.715 5.715 0 0 1 2.373-.431 3.059 3.059 0 0 1 .766.11v.015a.684.684 0 0 1-.198.524Z" data-name="Path 115"/>
    <path fill="#fff" d="m93.802 34.087-.039-.048a.613.613 0 0 0 .187-.628 1.634 1.634 0 0 1 .011-.292c.011-.13.024-.277.021-.417a.2.2 0 0 0-.083-.159.8.8 0 0 0-.477-.087 1.517 1.517 0 0 0 .421-.3c.066.044.22.056.6.011l.264-.034a1.587 1.587 0 0 1 .857 0 .214.214 0 0 1 .084.162l.028.048a5.8 5.8 0 0 1-1.822 2.694 2.084 2.084 0 0 0-.052-.95Z" data-name="Path 116"/>
    <path fill="#fff" d="M95.668 32.02a1.57 1.57 0 0 0-.985-.033l-.262.034a2.182 2.182 0 0 1-.439.024l-.009-.029a1.244 1.244 0 0 0 .3-.639c.034-.4-.386-.665-.532-.743l.005-.069a.4.4 0 0 1 .107-.285.832.832 0 0 0 .229-.573 2.55 2.55 0 0 1 1.034.661 2.208 2.208 0 0 1 .6 1.692Z" data-name="Path 117"/>
    <path fill="#fff" d="m88.66 30.761-.072.042a1.343 1.343 0 0 1-.336.136c.106-.383.516-.552.825-.679l.081-.033a7.22 7.22 0 0 0 .821-.457.471.471 0 0 0 .116.229 12.624 12.624 0 0 0-1.435.762Z" data-name="Path 118"/>
    <path fill="#fff" d="m92.868 32.509-.1.013-.16.02a1.113 1.113 0 0 1-.776-.1.207.207 0 0 1-.073-.19.258.258 0 0 1 .167-.233.33.33 0 0 1 .122-.022.307.307 0 0 1 .174.05 1.309 1.309 0 0 1 .138.121 1.3 1.3 0 0 0 .508.341Z" data-name="Path 119"/>
    <path fill="#fff" d="M93.33 34.219c-.2.065-.469.122-.8.193l-.189.04a.824.824 0 0 1-.984-.459.128.128 0 0 1 .027-.112.626.626 0 0 1 .338-.249h.011c.063 0 .123.074.212.192a2.109 2.109 0 0 0 .163.2 1.611 1.611 0 0 0 1.222.195Z" data-name="Path 120"/>
    <path fill="#fff" d="M93.668 35.206a7.844 7.844 0 0 1-.957.693 7.051 7.051 0 0 1-4.851.972 28.1 28.1 0 0 1 3.617-1.153l.57-.157a10.144 10.144 0 0 1 1.168-.253 2.331 2.331 0 0 0 .453-.102Z" data-name="Path 121"/>
    <path fill="#fff" d="M86.827 32.566a3.042 3.042 0 0 1 .856 1.794 2.785 2.785 0 0 1-1.667.007 3.577 3.577 0 0 1 .811-1.801Z" data-name="Path 122"/>
    <path fill="#fff" d="M86.112 35.261a2.25 2.25 0 0 1-.1-.738 2.977 2.977 0 0 0 .845.121 2.78 2.78 0 0 0 .853-.132 6.42 6.42 0 0 1-.176 2.3 2.382 2.382 0 0 1-1.422-1.551Z" data-name="Path 123"/>
    <path fill="#202021" d="M95.947 21.693a.651.651 0 1 0-.741-.644.7.7 0 0 0 .741.644Z" data-name="Path 124"/>
    <path fill="#fff" d="M95.947 20.556a.5.5 0 1 1-.573.493.539.539 0 0 1 .573-.493Z" data-name="Path 125"/>
    <path fill="#202021" d="M93.354 44.508a3.194 3.194 0 1 1 2.861-3.179 3.033 3.033 0 0 1-2.861 3.179Z" data-name="Path 126"/>
    <path fill="#202021" d="M46.413 31.878a.207.207 0 0 0-.208-.223c-.075 0-.143.041-.259.157a4.528 4.528 0 0 1-3.521 1.547c-1.407 0-1.793-.274-1.793-1.273V29.7c0-.7.252-.889 1.17-.889a2.693 2.693 0 0 1 2.039.837c.188.188.28.246.392.246a.2.2 0 0 0 .179-.208 4.814 4.814 0 0 0-.7-1.439c-.319-.515-.515-.726-.678-.726a.228.228 0 0 0-.173.116l-.077.137c-.1.19-.211.251-.477.251h-1.2c-.367 0-.474-.116-.474-.518v-1.529c0-.695.375-.918 1.541-.918a3.173 3.173 0 0 1 2.719 1.16c.168.183.263.248.364.248a.2.2 0 0 0 .194-.208 4.467 4.467 0 0 0-.746-1.544c-.371-.525-.623-.77-.8-.77-.071 0-.107.021-.242.141a.834.834 0 0 1-.617.155h-4.8c-.2 0-.327.1-.327.268 0 .184.091.251.425.311.5.1.642.279.642.8v7.188c0 .521-.144.7-.642.8-.329.075-.425.125-.425.311 0 .168.122.268.327.268h5.573a.6.6 0 0 1 .44.171c.107.108.159.126.241.126.2 0 .54-.329 1.062-1.035a3.845 3.845 0 0 0 .851-1.572Zm4.267 2.476c2.2 0 3.736-1.36 3.736-3.306 0-1.427-.755-2.368-2.449-3.052l-1.037-.415c-.9-.368-1.3-.794-1.3-1.38a1.2 1.2 0 0 1 1.289-1.155c.655 0 1.176.331 1.993 1.264.148.178.246.247.349.247a.209.209 0 0 0 .193-.208 6.112 6.112 0 0 0-.969-1.9c-.229-.329-.316-.443-.469-.443-.062 0-.1.027-.2.105l-.044.034a.511.511 0 0 1-.352.127.691.691 0 0 1-.085-.007.775.775 0 0 0-.093-.008l-.308-.03h-.27a2.353 2.353 0 0 0-2.639 2.3c0 1.071.589 1.753 2.034 2.355l.221.1.239.09c.5.211.592.252.679.3a4.259 4.259 0 0 1 .871.487 1.939 1.939 0 0 1 .8 1.59 2.059 2.059 0 0 1-2.141 2.058 2 2 0 0 1-2.178-1.941 1.747 1.747 0 0 1 .947-1.544c.246-.138.327-.2.327-.309 0-.151-.25-.253-.623-.253a2.09 2.09 0 0 0-2.09 2.135c-.004 1.573 1.532 2.759 3.568 2.759Zm9.266-.743c-.591-.1-.744-.265-.744-.8v-6.684c0-.676.256-.977.829-.977a2.9 2.9 0 0 1 1.993 1.175c.123.151.222.218.32.218a.213.213 0 0 0 .193-.223 3.912 3.912 0 0 0-.732-1.5c-.38-.532-.621-.769-.781-.769-.084 0-.107.02-.233.133l-.009.008a.761.761 0 0 1-.514.155h-3.794a.61.61 0 0 1-.47-.156c-.162-.118-.2-.141-.286-.141-.177 0-.524.377-.929 1.007a3.22 3.22 0 0 0-.583 1.262.213.213 0 0 0 .193.223c.105 0 .189-.073.349-.247a2.885 2.885 0 0 1 1.949-1.146c.586 0 .859.31.859.977v6.684c0 .526-.164.7-.76.8l-.207.03c-.263.042-.4.1-.4.3 0 .156.125.253.327.253h3.72c.19 0 .312-.1.312-.253.002-.225-.089-.256-.602-.329Zm3.612.683a1.077 1.077 0 0 0 1.068-1.083 1.057 1.057 0 0 0-1.068-1.068 1.075 1.075 0 1 0 0 2.151ZM44.193 44.359c-.1 0-.126.024-.406.253l-.207.169a3.28 3.28 0 0 1-1.16.646 3.333 3.333 0 0 1-.807.058h-1.555a2.337 2.337 0 0 1-.4-.014c-.174-.027-.286-.131-.286-.266a1.2 1.2 0 0 1 .378-.675 13.065 13.065 0 0 1 1.685-1.434l1.349-.993a2.815 2.815 0 0 0 1.361-2.366c0-1.693-1.457-2.876-3.543-2.876-1.984 0-3.424 1.141-3.424 2.713a2.22 2.22 0 0 0 2.194 2.239c.391 0 .653-.126.653-.312 0-.131-.106-.2-.345-.3a1.857 1.857 0 0 1 .789-3.513 1.8 1.8 0 0 1 1.882 1.955c0 1.03-.5 1.835-1.842 2.971-.148.118-.559.456-.83.682a8.437 8.437 0 0 0-1.993 2.1 2.851 2.851 0 0 0-.449 1.349c0 .275.1.461.253.461a.477.477 0 0 0 .208-.079 1.1 1.1 0 0 1 .8-.233h2.772c.451 0 .6.034.766.171l.192.163a.335.335 0 0 0 .183.066c.337 0 1-.757 1.642-1.883a1.93 1.93 0 0 0 .345-.816.219.219 0 0 0-.205-.236Zm4.445-7.485c-2.19 0-3.662 2.073-3.662 5.159a7.043 7.043 0 0 0 .863 3.557 3.077 3.077 0 0 0 2.768 1.631 3.164 3.164 0 0 0 2.663-1.415 6.468 6.468 0 0 0 1-3.743c.001-3.104-1.459-5.189-3.631-5.189Zm.028 9.471h-.064c-1.183 0-1.89-1.6-1.89-4.269 0-2.651.7-4.269 1.883-4.327h.062c1.175 0 1.877 1.624 1.877 4.343.001 2.646-.68 4.195-1.867 4.253Zm8.093-9.471c-2.19 0-3.661 2.073-3.661 5.159a7.043 7.043 0 0 0 .863 3.557 3.077 3.077 0 0 0 2.767 1.631 3.164 3.164 0 0 0 2.663-1.415 6.466 6.466 0 0 0 1-3.743c.001-3.104-1.463-5.189-3.631-5.189Zm.028 9.471h-.064c-1.183 0-1.89-1.6-1.89-4.269 0-2.651.7-4.269 1.883-4.327h.063c1.175 0 1.876 1.624 1.876 4.343.001 2.646-.68 4.195-1.867 4.253Zm8.231.133c-.823-.147-.937-.248-.937-.83v-7.51a1.488 1.488 0 0 1 .2-.9.5.5 0 0 0 .108-.267.228.228 0 0 0-.238-.208 1.128 1.128 0 0 0-.6.258 10.577 10.577 0 0 0-1.322 1.04c-.663.6-.959.962-.959 1.164a.181.181 0 0 0 .164.194.345.345 0 0 0 .2-.065l.119-.089a.767.767 0 0 1 .4-.172.258.258 0 0 1 .251.24 2.156 2.156 0 0 1 .015.382v5.943c0 .555-.159.7-.894.815-.324.057-.455.1-.455.312s.171.238.357.238h3.616c.191 0 .386-.028.386-.238-.001-.181-.111-.261-.41-.306Z" data-name="Path 127"/>
    <path fill="#202021" d="m29.768 96.7-.519-1.072c-.434-.918-.446-1.526-.038-1.972a1.123 1.123 0 0 1 .838-.369 1.412 1.412 0 0 1 .945.389c.511.466.674 1.07.646 2.395-.012.264.018.394.111.479a.235.235 0 0 0 .161.06.28.28 0 0 0 .2-.087 6.622 6.622 0 0 0 .614-2.217c.059-.439.072-.6-.065-.723-.061-.055-.119-.06-.26-.07h-.057a.5.5 0 0 1-.342-.142l-.057-.063-.072-.077-.219-.242-.078-.072-.137-.125a3.059 3.059 0 0 0-2.044-.888 2.328 2.328 0 0 0-1.747.8c-.773.847-.8 1.853-.1 3.364l.1.239.125.246c.229.5.283.618.32.716a4.411 4.411 0 0 1 .334 1 2.023 2.023 0 0 1-.5 1.789 2.1 2.1 0 0 1-1.559.706 2.314 2.314 0 0 1-1.551-.631 2.092 2.092 0 0 1-.317-3.032 1.78 1.78 0 0 1 1.33-.585 1.894 1.894 0 0 1 .482.063 1.657 1.657 0 0 0 .332.054.241.241 0 0 0 .191-.075c.128-.14.006-.419-.312-.709a2.252 2.252 0 0 0-1.521-.592 2.313 2.313 0 0 0-1.722.773c-1.147 1.256-.788 3.321.833 4.8a4.325 4.325 0 0 0 2.866 1.224 3.342 3.342 0 0 0 2.513-1.144c1.041-1.136 1.124-2.435.276-4.21Zm6.513 1.926a3.337 3.337 0 0 1 1.913.611 3.185 3.185 0 0 1 1.193 1.527 6.526 6.526 0 0 1 .337 1.7c.025.214.075.335.161.4a.215.215 0 0 0 .123.037.319.319 0 0 0 .252-.138 7.047 7.047 0 0 0 .373-2.412c.009-.394-.014-.589-.168-.7a.277.277 0 0 0-.16-.038l-.147-.007a.317.317 0 0 1-.19-.07 2.956 2.956 0 0 1-.233-.194l-.04-.035a8 8 0 0 0-1.226-1.047 5.255 5.255 0 0 0-3.01-.966 5.431 5.431 0 0 0-4.463 2.439 5.62 5.62 0 0 0-1.031 4.093 5.226 5.226 0 0 0 2.244 3.45 5.588 5.588 0 0 0 3.2 1.021 5.4 5.4 0 0 0 .946-.084c.475-.085.721-.195.849-.379a.422.422 0 0 0-.092-.581.488.488 0 0 0-.307-.09 2.085 2.085 0 0 0-.29.027 6.64 6.64 0 0 1-.839.057 3.939 3.939 0 0 1-2.359-.711c-1.812-1.262-2.07-3.7-.614-5.785a4.478 4.478 0 0 1 3.575-2.125Zm17.5 15.721a.276.276 0 0 0-.095-.016.771.771 0 0 0-.39.161 4.365 4.365 0 0 1-2.129.615 3.456 3.456 0 0 1-1.154-.2 1.623 1.623 0 0 1-.992-.672 1.5 1.5 0 0 1 .08-1.162l2.257-6.374c.144-.407.29-.538.6-.538a2.042 2.042 0 0 1 .391.048l.215.025a1.332 1.332 0 0 0 .236.027.283.283 0 0 0 .306-.2.329.329 0 0 0-.244-.435l-3.441-1.219a.541.541 0 0 0-.179-.034l-.044.006-2.508-1.27a.544.544 0 0 0-.244-.07.291.291 0 0 0-.269.179c-.11.217 0 .336.377.646.372.288.358.455.288.594a3.9 3.9 0 0 1-1.618 1.166 3.51 3.51 0 0 1-1.172.421.222.222 0 0 1-.1-.017c-.163-.083-.351-.993-.412-1.292a4.276 4.276 0 0 1-.095-2.049.255.255 0 0 1 .264-.151 1.766 1.766 0 0 1 .46.088 1.631 1.631 0 0 0 .458.111.268.268 0 0 0 .26-.168.3.3 0 0 0 .011-.269.472.472 0 0 0-.226-.208l-3.242-1.642a.537.537 0 0 0-.238-.065.3.3 0 0 0-.275.175.312.312 0 0 0 .034.341l.126.17a1.824 1.824 0 0 1 .32.946l.141 1.541a12.483 12.483 0 0 0 .276 1.6l.256 1.068a1.188 1.188 0 0 1-.077.951l-1.548 3.06c-.172.339-.329.465-.578.465a1.678 1.678 0 0 1-.478-.093 2.018 2.018 0 0 0-.536-.139.25.25 0 0 0-.24.167.3.3 0 0 0-.013.268.439.439 0 0 0 .215.2l3.524 1.785a.465.465 0 0 0 .21.055.292.292 0 0 0 .268-.165c.128-.254.02-.345-.417-.65-.5-.37-.566-.591-.323-1.07l1.7-3.355a1.082 1.082 0 0 1 .657-.568l1.218-.517a9.272 9.272 0 0 0 1.173-.621l1.1-.665a1.543 1.543 0 0 1 1.016-.288c.094 0 .165 0 .226-.012.035.022.073.045.115.069.45.269.521.471.341.98l-2.558 7.222c-.152.429-.307.566-.637.566a1.759 1.759 0 0 1-.246-.02 2.227 2.227 0 0 0-.256-.02.294.294 0 0 0-.328.21.3.3 0 0 0 .021.267.436.436 0 0 0 .239.174l4.6 1.63c.253.09.33.144.412.293.1.174.116.213.217.248a.31.31 0 0 0 .1.016 2.867 2.867 0 0 0 1.133-.532 5.944 5.944 0 0 0 1.614-1.437.271.271 0 0 0-.158-.351Zm8.358 2.175a.272.272 0 0 0-.2-.333l-.061-.007a.679.679 0 0 0-.4.209 4.149 4.149 0 0 1-2.449.89 3.5 3.5 0 0 1-.761-.085 1.62 1.62 0 0 1-1.066-.549 1.5 1.5 0 0 1-.059-1.164l1.479-6.6c.107-.477.265-.615.706-.615q.1 0 .221.01H59.889c.177 0 .347-.029.395-.24a.306.306 0 0 0-.05-.261.412.412 0 0 0-.245-.142l-3.561-.8a.61.61 0 0 0-.13-.016.308.308 0 0 0-.325.251c-.054.239.079.339.4.473.474.21.573.411.456.932l-1.676 7.477c-.114.51-.276.649-.753.649h-.057c-.349 0-.506.026-.558.259-.044.2.075.354.311.407l4.764 1.068c.262.059.345.1.444.242.116.162.142.2.246.221l.06.006a2.582 2.582 0 0 0 1.106-.667 5.959 5.959 0 0 0 1.418-1.614Zm10.16 2.82-.189-.093c-.253-.125-.4-.378-.593-1.041-.517-1.78-1.274-3.749-1.818-5.086a27.367 27.367 0 0 0-2.1-4.132c-.217-.338-.393-.494-.571-.51h-.023a.274.274 0 0 0-.266.258 2.056 2.056 0 0 0-.007.263l-.01.1a5.691 5.691 0 0 1-.939 2.246c-.172.3-.649 1.132-1.029 1.763a57.957 57.957 0 0 0-2.252 4.231c-.339.715-.5.864-.854.975l-.183.064c-.173.059-.248.142-.26.285a.27.27 0 0 0 .1.25.571.571 0 0 0 .311.1l2.833.253h.094c.3 0 .377-.159.389-.292.022-.248-.219-.342-.457-.4-.722-.177-.828-.31-.8-.646a6.1 6.1 0 0 1 .6-1.586c.3-.641.552-1.13.8-1.575l3.475.31c.267.743.688 2.037.815 2.513a2.623 2.623 0 0 1 .108.872c-.022.245-.129.418-.582.46l-.25.009c-.246.029-.5.082-.526.346a.285.285 0 0 0 .064.214.425.425 0 0 0 .3.133l3.6.322h.076c.276 0 .348-.16.36-.3a.3.3 0 0 0-.221-.305Zm-6.654-5.545.036-.063c.2-.378.584-1.028.879-1.5l.091-.152c.156-.263.237-.4.393-.63a14.2 14.2 0 0 1 .617 1.326c.208.493.344.821.514 1.25Zm21.145 4.253-.232-.035c-.588-.057-1.062-.478-1.692-1.5l-.778-1.28a3.642 3.642 0 0 0-2.654-2.017c1.5-.454 2.224-1.335 2.087-2.562a2.142 2.142 0 0 0-1.659-1.875 3.925 3.925 0 0 0-.929-.106 5.8 5.8 0 0 0-.646.039l-4.586.51c-.24.027-.376.169-.353.37.027.244.184.3.528.319.517.045.675.2.734.734l.864 7.615c.059.537-.058.718-.572.879-.329.114-.47.189-.444.426a.327.327 0 0 0 .36.287h.066l3.643-.406a.42.42 0 0 0 .258-.111.29.29 0 0 0 .081-.242c-.031-.28-.187-.3-.721-.314-.621-.036-.8-.184-.857-.719l-.754-6.769a1.647 1.647 0 0 1 .17-1.151 1.288 1.288 0 0 1 .975-.443 2.853 2.853 0 0 1 .31-.017 1.558 1.558 0 0 1 1.111 2.723 5.834 5.834 0 0 1-1.749.449l-.034.006a1.348 1.348 0 0 0-.515.14.447.447 0 0 0-.22.445c.025.227.194.362.516.415a3.768 3.768 0 0 1 1.563.4 8.7 8.7 0 0 1 1.839 2.1 9.318 9.318 0 0 0 1.756 2.094 2.166 2.166 0 0 0 1.417.518 2.343 2.343 0 0 0 .268-.015c.688-.076 1.181-.362 1.147-.665a.283.283 0 0 0-.304-.242Zm6.719-9.371a11.734 11.734 0 0 1-.449-1.18c-.1-.4.007-.6.43-.816.257-.13.377-.236.321-.453a.291.291 0 0 0-.311-.237.87.87 0 0 0-.211.031l-2.6.667c-.1.027-.425.109-.344.428.042.164.145.232.355.232q.069 0 .16-.009c.061 0 .121-.005.177-.005.541 0 .723.184 1.215 1.233a20.117 20.117 0 0 1 1.06 2.992 6.088 6.088 0 0 1 .2 2.834 2.492 2.492 0 0 1-1.819 1.839 2.622 2.622 0 0 1-.651.085 2.652 2.652 0 0 1-2.214-1.369 7.152 7.152 0 0 1-.819-2.065 18.15 18.15 0 0 1-.519-3.794c0-.608.124-.814.631-1.051.212-.093.4-.214.338-.458a.269.269 0 0 0-.284-.229.847.847 0 0 0-.2.031l-3.367.863c-.384.1-.366.343-.34.443.051.2.2.236.423.236h.182a.58.58 0 0 1 .656.488c.034.131.1.524.178 1.136a21.178 21.178 0 0 0 .521 2.926 7.181 7.181 0 0 0 1.266 2.808 3.8 3.8 0 0 0 3.036 1.537 4.671 4.671 0 0 0 1.158-.154 3.855 3.855 0 0 0 2.627-2.082 5.557 5.557 0 0 0 .2-3.795 34.422 34.422 0 0 0-1.012-3.112Zm13.075 1.744-.267-.187a1.323 1.323 0 0 1-.32-.523l-.431-.984c-.23-.526-.171-.712.335-1.048.171-.116.332-.265.232-.493a.286.286 0 0 0-.277-.185.775.775 0 0 0-.3.078l-3.922 1.716a.607.607 0 0 0-.287.209.339.339 0 0 0 .277.492h.051a2.058 2.058 0 0 0 .418-.106l.211-.063a3.2 3.2 0 0 1 .872-.205h.043a1.1 1.1 0 0 1 1 .718c.452 1.033-.241 2.264-1.613 2.864a3.593 3.593 0 0 1-1.449.311 4.407 4.407 0 0 1-3.854-2.926c-1.032-2.357-.332-4.7 1.666-5.578a3.634 3.634 0 0 1 1.466-.3 4.887 4.887 0 0 1 2.346.65.769.769 0 0 0 .348.128.305.305 0 0 0 .124-.027.247.247 0 0 0 .131-.139.32.32 0 0 0-.006-.24 5.708 5.708 0 0 0-1.432-1.313 2.778 2.778 0 0 0-1.15-.6.267.267 0 0 0-.105.02.488.488 0 0 0-.173.174c-.145.218-.195.263-.29.3a1.734 1.734 0 0 1-.214.068l-.049.013a7.2 7.2 0 0 0-1.668.471 5.438 5.438 0 0 0-2.939 3.044 5.6 5.6 0 0 0 .14 4.265 5.38 5.38 0 0 0 4.916 3.367 5.289 5.289 0 0 0 2.133-.455 7.209 7.209 0 0 0 2.619-2.05 2.711 2.711 0 0 1 .9-.748 2.468 2.468 0 0 1 .307-.1 1.916 1.916 0 0 0 .24-.07.292.292 0 0 0 .155-.158.258.258 0 0 0 0-.2.424.424 0 0 0-.19-.189Zm5.084-8.388a3.961 3.961 0 0 0-1.458.3 2.158 2.158 0 0 0 .328-2.679 2.093 2.093 0 0 0-1.786-.976h-.084a3.408 3.408 0 0 0-1.7.607l-3.84 2.412a.439.439 0 0 0-.2.222.305.305 0 0 0 .038.265.285.285 0 0 0 .253.154 1.03 1.03 0 0 0 .361-.1 1.179 1.179 0 0 1 .409-.095c.217 0 .371.118.571.435l4.076 6.489c.284.452.258.674-.119 1.032-.247.246-.341.375-.214.577a.3.3 0 0 0 .261.152.47.47 0 0 0 .246-.081l3.907-2.454a4.644 4.644 0 0 0 1.648-1.607 3.239 3.239 0 0 0-.18-3.211 2.914 2.914 0 0 0-2.517-1.442Zm1.255 4.253a2.01 2.01 0 0 1-1.071 1.425 2.115 2.115 0 0 1-1.077.386 1 1 0 0 1-.322-.052c-.248-.089-.5-.359-.83-.877l-3.126-4.977c-.274-.435-.357-.625-.355-.811a1.236 1.236 0 0 1 .7-.937 1.791 1.791 0 0 1 .942-.3 1.4 1.4 0 0 1 1.2.706 1.6 1.6 0 0 1 .209 1.293 4.385 4.385 0 0 1-1.421 1.382c-.192.147-.423.379-.215.71a.4.4 0 0 0 .336.228 1.208 1.208 0 0 0 .581-.247 5.466 5.466 0 0 1 2-.907 2.43 2.43 0 0 1 .27.016 2.366 2.366 0 0 1 1.76 1.193 2.551 2.551 0 0 1 .421 1.774Zm8.4-4.815a.283.283 0 0 0-.22-.132 1.306 1.306 0 0 0-.543.252 1.242 1.242 0 0 1-.575.208c-.18 0-.335-.1-.535-.343l-2.388-2.905a1.082 1.082 0 0 1-.256-.83l.017-1.323a9.244 9.244 0 0 0-.1-1.324l-.166-1.272a1.541 1.541 0 0 1 .145-1.045c.114-.272.156-.373.033-.523a.3.3 0 0 0-.233-.119.494.494 0 0 0-.3.134l-2.174 1.784a.478.478 0 0 0-.179.246.3.3 0 0 0 .073.267.266.266 0 0 0 .214.114 1.436 1.436 0 0 0 .53-.2.946.946 0 0 1 .422-.143.29.29 0 0 1 .237.118 3.907 3.907 0 0 1 .416 1.951c.029.778-.019 1.224-.141 1.324a.336.336 0 0 1-.2.036 6.462 6.462 0 0 1-1.15-.178 4.28 4.28 0 0 1-1.914-.738c-.115-.14-.109-.279.233-.688.267-.292.411-.468.237-.68a.3.3 0 0 0-.236-.119.465.465 0 0 0-.289.123l-2.808 2.307c-.2.162-.237.354-.106.514a.307.307 0 0 0 .243.116.4.4 0 0 0 .083-.009l.207-.048a1.08 1.08 0 0 1 .295-.037 2.326 2.326 0 0 1 .7.125l1.467.492a12.515 12.515 0 0 0 1.578.392l1.08.2a1.188 1.188 0 0 1 .839.453l2.177 2.649c.342.415.325.645-.083 1.117-.36.393-.456.516-.287.721a.3.3 0 0 0 .238.12.439.439 0 0 0 .274-.115l3.052-2.508a.422.422 0 0 0 .155-.234.29.29 0 0 0-.063-.245Z" data-name="Path 128"/>
  </g>
</svg>