<svg xmlns="http://www.w3.org/2000/svg" viewBox="0 0 26.5 26.5" xml:space="preserve"><circle fill="#111" cx="13.13" cy="12.94" r="13.25"/><path fill="#1CBEFF" d="M20.45 8.4c-.47.2-.96.34-1.46.42.23-.04.58-.46.72-.64.22-.26.38-.56.48-.88.01-.02.02-.06 0-.08-.03-.01-.05-.01-.08.01-.55.29-1.13.51-1.73.66-.04.01-.09 0-.12-.03-.05-.06-.1-.11-.15-.15-.25-.22-.53-.39-.84-.51-.41-.17-.85-.24-1.29-.21-.43.03-.84.15-1.22.35-.38.2-.71.47-.98.8-.28.33-.48.73-.59 1.17-.09.41-.1.83-.03 1.24.01.07 0 .08-.06.07a9.292 9.292 0 0 1-5.96-3.03c-.07-.08-.1-.08-.16 0a3 3 0 0 0 .52 3.57c.12.11.24.22.37.32-.4-.03-.79-.14-1.15-.32-.08-.04-.11-.02-.12.06 0 .11 0 .23.02.34.14 1.1.86 2.03 1.88 2.44.12.05.25.09.38.12-.37.07-.75.09-1.13.03-.08-.02-.11.02-.08.1a3.148 3.148 0 0 0 2.37 1.98c.11.02.21.02.32.04l-.02.02c-.46.42-1.02.71-1.62.86-.79.28-1.62.39-2.46.31-.13-.02-.16-.02-.2 0s-.01.05.04.09a8.038 8.038 0 0 0 2.15.96c2.98.9 6.22.14 8.49-1.99a8.91 8.91 0 0 0 2.35-6.5c0-.09.11-.15.17-.19.44-.34.83-.75 1.16-1.2a.4.4 0 0 0 .08-.23v-.01c.01-.03.01-.02-.05.01z"/></svg>