<svg xmlns="http://www.w3.org/2000/svg" viewBox="0 0 369 369"><defs><clipPath id="a"><path fill="none" d="M0 0h204.162v238.076H0z" data-name="Rectangle 562"/></clipPath></defs><g data-name="Group 95" transform="translate(-2582 461)"><circle cx="184.5" cy="184.5" r="184.5" fill="#111" data-name="Ellipse 5" transform="translate(2582 -461)"/><g data-name="Group 94"><g clip-path="url(#a)" data-name="Group 93" transform="translate(2664.419 -395.538)"><path fill="#1cbeff" fill-rule="evenodd" d="M148.593 0c3.928 33.784 22.785 53.926 55.569 56.069v38c-19 1.857-35.641-4.357-55-16.071v71.068c0 90.281-98.424 118.494-137.994 53.783-25.424-41.643-9.853-114.71 71.714-117.639v40.07a118.015 118.015 0 0 0-18.928 4.643c-18.142 6.142-28.427 17.642-25.57 37.927 5.5 38.855 76.782 50.355 70.854-25.57V.071h39.355Z" data-name="Path 393"/></g></g></g></svg>