<svg viewBox="0 0 60 60" fill="none" xmlns="http://www.w3.org/2000/svg">
<path fill="#1CBEFF" d="M0 29.2299V29.1475C0.744891 19.5141 4.22547 12.2884 10.2721 7.72012C16.2365 3.06949 22.6993 0.826564 29.74 0.826564C37.112 0.744181 43.9883 3.23426 50.1197 8.21707C56.3334 13.1175 59.3977 20.4256 59.3977 29.8916V30.4736C59.3977 40.0247 56.3334 47.1654 50.1197 52.0658C43.9061 57.0486 37.0298 59.5414 29.6578 59.5414H29.3264C22.1187 59.459 15.4916 56.9663 9.36283 51.9834C3.23139 47.083 0.0848274 39.5251 0.00265086 29.2273L0 29.2299ZM27.9162 16.1922V3.06949H25.928C25.5145 3.5691 25.1831 4.14844 24.8518 4.64805C24.5204 5.14766 24.1891 5.64461 23.8577 6.2266C23.5264 6.72621 23.1128 7.39059 22.8636 7.88754C22.5323 8.38715 22.2831 8.8841 22.0339 9.4661C21.5356 10.2979 21.122 11.127 20.7907 11.8738C20.3771 12.6206 20.0458 13.37 19.7966 14.0343C20.295 14.3665 20.8728 14.7811 21.5356 15.0309C22.2804 15.2807 23.028 15.5305 23.7729 15.6953C24.6026 15.8627 25.3475 15.9451 26.0102 16.0275C26.7551 16.1098 27.4178 16.1949 27.9162 16.1949V16.1922ZM31.3967 3.07215V16.1098C31.8103 16.1098 32.3086 16.1922 32.8043 16.1098C33.3027 16.1098 33.8806 16.0275 34.379 15.9424C35.2909 15.775 36.3671 15.5279 37.1968 15.2781C38.1087 14.9459 38.9358 14.5313 39.5163 14.0317C38.5222 11.624 37.446 9.71325 36.3671 7.88488C35.2882 6.05652 34.0476 4.48063 32.7222 3.15188V3.06949H31.3967V3.07215ZM22.4501 3.81891V3.73653C21.8696 3.98633 21.289 4.4009 20.6263 4.65071C20.0458 4.90051 19.3009 5.2327 18.7203 5.56489C17.5593 6.14688 16.4008 6.81125 15.2398 7.55801C14.1635 8.30477 13.0846 9.13657 12.1754 9.96571C12.5067 10.2979 12.9203 10.6301 13.2516 10.8799C13.583 11.1297 13.9965 11.4619 14.4127 11.7941C14.7441 11.9615 15.1576 12.2086 15.5738 12.5408C15.9873 12.7906 16.4857 13.1228 16.9814 13.455C17.6441 11.9588 18.3068 10.3829 19.1365 8.96914C19.9663 7.47297 20.8755 6.06184 21.7874 4.81547C21.8696 4.64805 21.9544 4.48328 22.1187 4.31586C22.2009 4.23348 22.2858 3.98633 22.4501 3.81891ZM47.7976 9.96305V9.88067C45.7273 8.30211 43.9035 6.97336 42.0823 6.14422C40.2612 5.31508 38.4374 4.48328 36.7806 3.81891C38.1061 5.14766 39.2671 6.8086 40.012 8.38715C40.8417 10.0481 41.6688 11.7914 42.3315 13.4523C42.6629 13.2849 43.0764 13.1202 43.5748 12.788C43.9883 12.5382 44.5688 12.2884 45.0672 12.0412C45.5656 11.709 45.9791 11.3768 46.4748 11.0447C46.9732 10.6301 47.4689 10.2979 47.8002 9.96571L47.7976 9.96305ZM46.39 28.4832H55.9172C55.9172 25.4111 55.2545 22.5038 54.0112 19.5141C52.8501 16.6068 51.1933 14.1991 49.123 12.1236V12.0412C48.7095 12.7056 48.129 13.2876 47.5484 13.7022C46.8857 14.1167 46.3052 14.4489 45.6424 14.7811C45.2289 15.0309 44.8127 15.3631 44.3992 15.5279C43.9857 15.7777 43.4051 15.9424 42.9916 16.1922C43.3229 16.8566 43.6543 17.6034 43.9857 18.2677C44.2348 19.0145 44.6484 19.8463 44.8154 20.5931C45.3137 21.9218 45.6451 23.3329 45.9765 24.7467C46.2256 25.9931 46.39 27.3218 46.39 28.4832ZM16.4035 16.1922V16.1098C15.7408 15.7777 14.9959 15.5279 14.4154 15.1957C13.8348 14.7811 13.2543 14.3639 12.7586 14.0317C12.2602 13.7819 11.7645 13.4497 11.351 13.1175C10.9374 12.7853 10.6061 12.4531 10.2747 12.1209C8.11957 14.1964 6.54762 16.5218 5.55354 19.2643C4.4773 22.0042 3.72975 25.0789 3.3984 28.4008H13.5883C13.5883 26.0755 13.9196 23.8325 14.5002 21.5896C14.9985 19.2643 15.7408 17.521 16.4035 16.1922ZM27.9162 28.4008V18.8497C27.2535 18.9321 26.4237 18.9321 25.6788 18.8497C24.8491 18.7673 24.0221 18.5175 23.2772 18.2677C22.6145 18.1003 21.7847 17.9356 21.122 17.6857C20.3771 17.5183 19.6296 17.1861 19.0517 16.8539C18.5533 17.6857 18.1398 18.6823 17.8085 19.7613C17.3949 20.7578 17.1457 21.8368 16.8966 22.8333C16.7296 23.8299 16.6474 24.9088 16.5652 25.823C16.483 26.7372 16.3982 27.6514 16.3982 28.3981H27.9135L27.9162 28.4008ZM31.3967 19.0172V28.4008H43.657C43.657 27.9012 43.657 27.3218 43.5748 26.6575C43.4078 26.0755 43.3256 25.3287 43.2434 24.6643C42.9942 23.6678 42.7451 22.5888 42.4137 21.5923C42.0823 20.6781 41.751 19.7639 41.3375 19.0172C41.1705 18.6026 41.0061 18.103 40.8391 17.7708C40.5899 17.3562 40.3407 17.1064 40.1764 16.8566C39.2645 17.521 38.0212 17.9356 36.5315 18.2677C35.1238 18.5999 33.4671 18.9321 31.9746 19.0145H31.3941L31.3967 19.0172ZM13.5856 31.1407H3.39575C3.39575 32.5518 3.64493 34.1304 4.05846 36.0411C4.47199 38.0342 5.30171 39.8626 6.21361 41.8557C6.62714 42.8523 7.1255 43.8488 7.62121 44.8454C8.20175 45.7596 8.86446 46.7561 9.52718 47.6703C10.0255 47.3381 10.5212 47.0883 10.9348 46.8385C11.4331 46.5887 12.011 46.2565 12.5094 46.0067C13.0899 45.7569 13.6705 45.5071 14.3332 45.1749C14.9137 44.9251 15.6586 44.5929 16.4035 44.2608C15.7408 42.1852 14.9959 40.1921 14.4975 37.9492C13.917 35.7886 13.5856 33.6307 13.5856 31.2231V31.1407ZM27.9162 40.8565V31.1407H16.4008C16.4008 31.805 16.483 32.8016 16.65 33.7982C16.7322 34.7947 16.9814 35.8737 17.1484 36.9553C17.4797 38.1193 17.7289 39.2806 18.0603 40.2772C18.3916 41.2737 18.723 42.1055 19.0544 42.8523C20.5468 42.2703 22.0366 41.8557 23.0306 41.6059C24.1069 41.2737 25.101 41.0239 26.095 40.9415H27.0069C27.3383 40.8591 27.6696 40.8591 27.9188 40.8591L27.9162 40.8565ZM31.3967 31.1407V40.7741C31.9773 40.8565 32.64 40.9415 33.3027 41.0239C34.0476 41.1063 34.9595 41.2737 35.7044 41.4385L36.9476 41.6883C37.3612 41.8557 37.8595 41.9381 38.2731 42.0205C38.7714 42.1879 39.2671 42.2703 39.7655 42.435C40.179 42.6025 40.5952 42.6849 40.9266 42.8496C42.0028 40.1097 42.6655 37.8668 43.0817 35.9561C43.4953 34.1277 43.6623 32.5518 43.6623 31.2231V31.1407H31.402H31.3967ZM55.9172 31.2231V31.1407H46.39V31.6403C46.3078 33.2188 46.0586 35.0445 45.7273 36.9553C45.3959 38.7836 44.651 40.9415 43.657 43.599C44.9824 44.2634 46.2256 44.9278 47.2197 45.5922C48.2138 46.2565 49.1257 47.0033 49.7884 47.6677C51.196 46.2565 52.4392 44.3458 53.5155 41.8531C54.5917 39.4454 55.3393 36.9526 55.7528 34.2951C55.835 33.7955 55.835 33.2986 55.9198 32.799V31.2204L55.9172 31.2231ZM27.9162 56.4693V43.514C25.8459 43.8462 24.1042 44.2608 22.7788 44.5929C21.4534 44.9251 20.4593 45.2573 19.7966 45.5895C20.295 46.8359 20.7907 47.9148 21.289 48.9114C21.7874 49.8256 22.3653 50.8221 22.8636 51.6513C23.0306 51.9834 23.362 52.3156 23.6085 52.7302C23.8577 53.0624 24.0221 53.477 24.2712 53.8092C24.5204 54.2237 24.7696 54.7233 25.0161 55.2203C25.3475 55.6349 25.5967 56.1345 25.928 56.4667L27.9162 56.4693ZM31.3967 56.4693H33.3027C34.0476 55.8873 34.7951 55.0582 35.373 54.144C36.0357 53.2298 36.7806 52.1509 37.279 51.2367C37.8595 50.1577 38.4401 49.1612 38.9358 48.1646C39.4315 47.1681 39.8477 46.2539 40.179 45.5895C39.2671 45.2573 38.0239 44.9251 36.7833 44.5929C35.5427 44.2608 33.8011 43.9286 31.3994 43.5964V56.4693H31.3967ZM47.7976 49.6608V49.5784C47.6306 49.3286 47.2992 48.9964 47.0527 48.7466C46.8062 48.4968 46.39 48.1646 45.9765 47.9148C45.6451 47.665 45.2316 47.4152 44.7332 47.1681C44.2348 46.9209 43.5721 46.5861 42.9942 46.2539C42.6629 46.9183 42.0823 48.0822 41.2553 49.6581C40.5104 51.2367 39.185 53.1474 37.5282 55.2229C39.5985 54.8908 41.4223 54.144 43.0791 53.1474C44.9029 52.2333 46.4748 50.9869 47.8002 49.6581L47.7976 49.6608ZM16.9814 47.0033V46.9209C16.4008 47.2531 15.489 47.6677 14.5797 48.0849C13.5856 48.4995 12.5094 48.9991 11.5153 49.6634C12.0959 50.1631 12.6764 50.66 13.1721 50.9922C13.6705 51.4068 14.2484 51.739 14.7467 52.0711C15.6586 52.6531 16.7349 53.2351 17.8111 53.7321C18.8874 54.229 20.2128 54.7286 21.8696 55.2283C21.289 54.5639 20.8755 53.7321 20.462 53.0677C20.0484 52.4033 19.5501 51.739 19.1365 51.0746C18.723 50.4102 18.3916 49.6634 18.0603 48.9991C17.6468 48.3347 17.3154 47.6703 16.984 47.0059L16.9814 47.0033Z" fill="white"/>
</svg>
