<?xml version="1.0" encoding="utf-8"?>
<!-- Generator: Adobe Illustrator 26.2.1, SVG Export Plug-In . SVG Version: 6.00 Build 0)  -->
<svg version="1.1" id="Layer_1" xmlns="http://www.w3.org/2000/svg" xmlns:xlink="http://www.w3.org/1999/xlink" x="0px" y="0px"
	 viewBox="0 0 64 64" enable-background="new 0 0 64 64" xml:space="preserve">
<rect fill="#0093D2" width="64" height="64"/>
<g>
	<path fill="#262423" d="M44.29,24.19c0.39-1.77-0.52-3.76-1.01-4.83c-0.12-0.26-0.22-0.47-0.26-0.61c-0.09-0.29-0.1-0.58-0.06-0.88
		l0.01-0.06c0.02-0.15,0.05-0.31,0.07-0.47c0.04-0.24,0.08-0.48,0.1-0.73c0.05-0.7,0.13-1.77-0.83-2.56
		c-0.81-0.67-2.15-1.1-2.46-1.2c-1.7-4-4.54-6.12-5.95-6.12c-0.15,0-0.28,0.02-0.4,0.07c-1.01,0.44-2.92,1.84-3.01,1.91
		c-2.72,2.38-4.39,4.05-5.41,6.11c-0.89,1.8-1.09,3.8-1.2,4.91l-0.01,0.07l0,0.01c-0.01,0.14-0.02,0.27-0.04,0.38
		c-0.11,1.02-0.29,1.7-0.93,2.4c-0.78,0.84-1.42,2.12-1.86,3.7c-0.16,0.58-0.33,1.09-0.49,1.54c-0.29,0.86-0.53,1.54-0.46,2.16
		c0.08,0.72,0.61,1.06,0.89,1.18c-1.26,1.63-1.67,3.19-1.22,4.63c0.59,1.86,1.99,2.52,2.42,2.68c-0.12,0.32-0.47,1.35-1.04,3.44
		c-0.04,0.14-0.08,0.28-0.12,0.42c-0.72,2.6-1.61,5.85,0.22,9.21c1.95,3.57,5.72,5.71,10.1,5.71c0.54,0,1.11-0.03,1.67-0.1
		c5.84-0.66,9.75-4.32,10.2-9.56c0.41-4.76-1.34-9.29-3.12-11.93c-1.24-1.85-1.76-3.2-1.85-3.46c0.65-1.06,1.03-2.49,1.11-2.8
		C42.82,27.93,43.83,26.25,44.29,24.19z"/>
	<path fill="#FFFFFF" d="M39.13,29.3L39.13,29.3c0,0.02-0.41,1.7-1.13,2.84c-0.53,0.77-1.14,2.07-1.7,3.68l-0.02,0.07
		c-0.03,0.06,0.01,0.13,0.08,0.16l0.05,0.01c0.05,0,0.11-0.03,0.13-0.08c0-0.01,0.01-0.03,0.03-0.08c0.5-1.44,1.03-2.63,1.52-3.4
		c0.2,0.51,0.74,1.73,1.8,3.31c1.76,2.61,3.49,7.08,3.08,11.78c-0.44,5.12-4.26,8.7-9.96,9.34c-0.55,0.06-1.1,0.09-1.64,0.09
		c-4.27,0-7.95-2.08-9.85-5.57c-1.78-3.28-0.9-6.47-0.2-9.04c0.04-0.14,0.08-0.28,0.12-0.42c0.57-2.11,0.93-3.13,1.04-3.43
		c0.82,0.15,1.59,0.22,2.33,0.22c2.69,0,4.83-0.91,6.26-1.79c3.07-1.89,4.78-4.69,5.01-6.09c0.21-1.26-0.14-2.46-1-3.37
		c-0.84-0.89-2.09-1.42-3.44-1.44c-2.03-0.04-3.27,0.44-4.02,0.73c-0.24,0.09-0.43,0.16-0.54,0.18c-0.09,0.01-0.16,0-0.22-0.05
		c-0.13-0.1-0.17-0.31-0.17-0.38l-0.01-0.02l0.03-0.02l0.03-0.02c0.52-0.59,1.25-0.85,2.09-1.15c0.45-0.16,0.92-0.33,1.4-0.56
		c1.54-0.74,3.4-2.92,2.74-4.92c-0.48-1.48-2.06-2.27-2.93-2.6c2.44-0.05,5.32,0.7,7.14,2.51C39.49,22.09,39.8,26.87,39.13,29.3
		L39.13,29.3z"/>
	<path fill="#262423" d="M31.96,40.25c-2.74,0-4.98,2.45-4.98,5.47c0,3.02,2.23,5.47,4.98,5.47c2.74,0,4.97-2.45,4.97-5.47
		C36.94,42.71,34.71,40.25,31.96,40.25z"/>
	<path fill="#FFFFFF" d="M43.03,19.45c0.48,1.05,1.37,2.99,1,4.69c-0.43,1.95-1.39,3.55-4.56,4.96c0.22-0.95,0.33-2.34,0.19-3.83
		c0.13,0.03,0.31,0.06,0.52,0.06c0.53,0,1.23-0.19,1.62-1.05c0.66-1.47-0.46-2.48-2.12-3.74c-1.32-1-2.41-1.89-2.74-2.16
		c0.53-0.32,1.98-1.16,3.21-1.48c0.26,0.08,1.72,0.56,2.53,0.99c-0.03,0.31-0.02,0.62,0.08,0.93C42.8,18.97,42.9,19.18,43.03,19.45z
		"/>
	<path fill="#0093D2" d="M37.66,19.93c0.06-0.04,0.16-0.13,0.38-0.33c0.43,0.34,0.92,0.72,1.46,1.13c1.62,1.23,2.64,2.14,2.05,3.46
		c-0.52,1.16-1.67,0.9-1.91,0.83C39.43,23.2,38.85,21.29,37.66,19.93z"/>
	<path fill="#FFFFFF" d="M42.13,14.23c0.86,0.71,0.79,1.67,0.74,2.36c-0.02,0.24-0.06,0.48-0.1,0.71c-0.02,0.11-0.04,0.21-0.05,0.32
		c-0.8-0.41-2.05-0.82-2.41-0.94c0.12-1.31-0.23-2.95-0.38-3.54C40.39,13.29,41.47,13.69,42.13,14.23z"/>
	<path fill="#FFFFFF" d="M32.99,7.36c0.23-0.14,0.45-0.25,0.64-0.33c0.07-0.03,0.17-0.05,0.28-0.05c1.1,0,3.9,1.76,5.69,5.98l0,0.02
		c0.01,0.02,0.58,2.14,0.42,3.7c-1.39,0.38-2.97,1.33-3.37,1.57c-0.54-0.43-3.68-3-4.19-5.78c-0.56-3.03,0.51-5.07,0.52-5.09
		L32.99,7.36z"/>
	<path fill="#FFFFFF" d="M37.92,19.39l-0.38,0.27c-1.18-1.16-3.09-2.04-3.57-2.03c0.19,0,0.35-0.57,1.05-0.49h0
		C35.37,17.49,37.66,19.16,37.92,19.39z"/>
	<path fill="#FFFFFF" d="M25.34,14.92c1-2.02,2.65-3.68,5.34-6.02c0.01-0.01,0.99-0.72,1.9-1.29c-0.29,0.71-0.84,2.48-0.39,4.91
		c0.31,1.68,1.51,3.26,2.58,4.37c-0.67,0.03-0.96,0.46-1.06,0.66c-1.96-0.59-4.08-0.65-5.68-0.27c-1.98,0.47-3.28,1.57-3.83,2.11
		C24.32,18.25,24.56,16.5,25.34,14.92z"/>
	<path fill="#FFFFFF" d="M20.39,29.97c-0.07-0.56,0.15-1.19,0.44-2.06c0.15-0.45,0.33-0.96,0.49-1.55c0.54-1.95,1.28-3.04,1.8-3.6
		c0.69-0.74,0.89-1.49,1-2.53c0.01-0.11,0.02-0.24,0.04-0.38l0-0.02c0.22-0.25,1.61-1.75,3.94-2.3c0.39-0.09,0.82-0.16,1.26-0.2
		l0.02,0.01c0.03,0.01,2.7,0.72,3.32,2.62c0.63,1.94-1.33,4.02-2.61,4.63c-0.47,0.23-0.93,0.39-1.38,0.55
		c-0.84,0.3-1.63,0.58-2.2,1.21c-0.13,0.08-1.06,0.68-1.57,0.9c-0.04,0.02-0.09,0.04-0.13,0.05c-0.59,0.24-1.49,0.61-1.56,1.55
		c-0.07,0.13-0.34,0.68,0.03,1.35c0.29,0.51,0.58,0.86,1,0.86c0.1,0,0.22-0.02,0.34-0.07c0.36-0.13,1.18-0.51,1.17-1.23
		c-0.01-0.48-0.18-0.97-0.25-1.17c0.21-0.15,0.43-0.3,0.48-0.33l0.04,0c0.2-0.01,0.77-0.05,1.29-0.56c0.33,0.13,1.44,0.55,2.85,0.64
		c0.3,0.02,0.55,0.04,0.78,0.05c1,0.07,1.33,0.09,1.49-0.03c0.21,0.12,0.76,0.48,0.72,0.98c-0.06,0.68-0.9,1.58-1.56,1.67
		c-0.49,0.07-0.84-0.26-1.12-0.52c-0.09-0.09-0.18-0.17-0.26-0.22c-0.21-0.14-0.51-0.18-0.77-0.08c-0.25,0.1-0.41,0.31-0.44,0.59
		c-0.02,0.2,0.05,0.38,0.2,0.51c0.27,0.23,0.81,0.32,1.5,0.23c0.09-0.01,0.17-0.02,0.27-0.03c0.61-0.08,1.44-0.18,1.65-0.02
		l0.04,0.08c0,0.22-0.02,0.45-0.03,0.66c-0.02,0.23-0.04,0.42-0.01,0.55c0.06,0.33,0.05,0.74-0.49,0.95
		c-0.68,0.25-1.79,0.12-2.07-0.16c-0.09-0.1-0.17-0.2-0.25-0.3c-0.18-0.24-0.35-0.46-0.63-0.42c-0.25,0.03-0.6,0.28-0.76,0.53
		c-0.12,0.19-0.09,0.32-0.06,0.4c0.13,0.28,0.67,1.17,1.93,0.9l0.31-0.07c0.84-0.18,1.43-0.3,1.81-0.52
		c0.08,0.37,0.17,0.98,0.06,1.22c-0.07,0.15-0.27,0.19-0.85,0.29c-0.46,0.08-1.08,0.18-1.95,0.42c-0.28,0.08-0.6,0.16-0.94,0.26
		c-2.01,0.55-4.73,1.3-6.11,1.97c1.22-5.26-1.28-7.12-1.39-7.2l-0.03-0.02l-0.01-0.01C21.23,31,20.48,30.77,20.39,29.97z"/>
	<path fill="#FFFFFF" d="M32.56,27.4c-0.22,0.26-0.23,0.46-0.23,0.61c0,0.07,0,0.12-0.03,0.15c-0.05,0.07-0.55,0.03-1.3-0.02
		c-0.22-0.01-0.48-0.03-0.78-0.05c-1.6-0.1-2.83-0.65-2.84-0.65c-0.06-0.03-0.13-0.01-0.17,0.03c-0.46,0.5-0.98,0.53-1.17,0.54
		c-0.05,0-0.08,0.01-0.11,0.02c-0.06,0.02-0.28,0.16-0.64,0.42c-0.05,0.03-0.06,0.09-0.04,0.14c0,0.01,0.26,0.61,0.27,1.17
		c0.01,0.57-0.7,0.89-1,1c-0.33,0.12-0.58,0.05-0.99-0.67c-0.35-0.62-0.04-1.12-0.02-1.14l0.02-0.04c0.14-0.03,0.45-0.11,0.75-0.28
		l0.12-0.07c0.5-0.3,1.82-1.08,2.52-1.31c0.06,0.01,0.12,0.01,0.19,0c0.15-0.02,0.35-0.09,0.62-0.2c0.72-0.28,1.92-0.75,3.9-0.71
		c0.44,0.01,0.86,0.07,1.26,0.18l0,0.02C32.91,26.84,32.8,27.12,32.56,27.4z"/>
	<path fill="#FFFFFF" d="M32.7,33.82l-0.07-0.08c0.28-0.23,0.39-0.57,0.31-1.03c-0.02-0.09,0-0.28,0.02-0.48
		c0.02-0.21,0.04-0.46,0.04-0.69c0-0.1-0.05-0.2-0.14-0.26c-0.16-0.12-0.44-0.15-0.78-0.14c0.24-0.11,0.48-0.28,0.69-0.49
		c0.11,0.07,0.36,0.09,0.99,0.02c0.15-0.02,0.29-0.04,0.43-0.06c0.63-0.08,1.18-0.16,1.41,0c0.08,0.06,0.12,0.14,0.14,0.27
		l0.05,0.08c-0.21,1.04-1.22,2.84-3,4.43C32.98,34.96,32.73,33.93,32.7,33.82z"/>
	<path fill="#FFFFFF" d="M35.77,30.41c-0.33-0.23-0.9-0.15-1.62-0.05c-0.14,0.02-0.28,0.04-0.43,0.06
		c-0.43,0.05-0.63,0.05-0.72,0.04l-0.02-0.05c0.27-0.33,0.46-0.71,0.49-1.05c0.06-0.66-0.63-1.09-0.87-1.22l0.01-0.11
		c0-0.13,0.01-0.28,0.18-0.47c0.26-0.3,0.38-0.61,0.38-0.94c0.66,0.23,1.24,0.59,1.7,1.09c0.72,0.76,1.06,1.74,0.99,2.78
		L35.77,30.41z"/>
	<path fill="#FFFFFF" d="M24.25,28.34l-0.12,0.07c-0.2,0.12-0.41,0.19-0.55,0.22c0.17-0.63,0.85-0.91,1.36-1.12
		c0.05-0.02,0.09-0.04,0.13-0.05c0.4-0.17,1-0.53,1.35-0.75c0.02,0.11,0.08,0.26,0.19,0.38C25.86,27.39,24.71,28.07,24.25,28.34z"/>
	<path fill="#FFFFFF" d="M31.16,31.22c-0.06,0.01-0.11,0.01-0.17,0.02c-0.09,0.01-0.18,0.02-0.26,0.03
		c-0.6,0.07-1.07,0.01-1.28-0.17c-0.09-0.08-0.13-0.18-0.12-0.31c0.02-0.24,0.16-0.34,0.27-0.38c0.06-0.02,0.13-0.04,0.2-0.04
		c0.11,0,0.21,0.03,0.29,0.08c0.07,0.05,0.14,0.12,0.23,0.2C30.54,30.86,30.8,31.11,31.16,31.22z"/>
	<path fill="#FFFFFF" d="M31.92,34.03c-0.33,0.11-0.77,0.2-1.32,0.32l-0.31,0.07c-1.03,0.22-1.47-0.45-1.62-0.76
		c-0.02-0.04,0-0.11,0.04-0.18c0.12-0.2,0.41-0.39,0.56-0.41l0.02,0c0.1,0,0.2,0.12,0.35,0.32c0.08,0.1,0.16,0.21,0.27,0.32
		C30.23,34.03,31.18,34.17,31.92,34.03z"/>
	<path fill="#FFFFFF" d="M32.48,35.65c-0.48,0.4-1,0.79-1.57,1.14c-1.71,1.05-4.46,2.15-7.98,1.6c1.39-0.65,4-1.36,5.95-1.9
		c0.34-0.09,0.66-0.18,0.94-0.26c0.86-0.24,1.47-0.34,1.92-0.42C32.06,35.77,32.3,35.72,32.48,35.65z"/>
	<path fill="#FFFFFF" d="M21.24,31.31c0.3,0.27,1.12,1.17,1.41,2.95c-1.3,0.44-2.5,0.09-2.74,0.01
		C20.03,32.92,20.83,31.83,21.24,31.31z"/>
	<path fill="#FFFFFF" d="M20.06,35.74c-0.13-0.42-0.18-0.82-0.17-1.21c0.23,0.07,0.74,0.2,1.39,0.2c0.42,0,0.9-0.06,1.4-0.22
		c0.12,0.99,0.08,2.24-0.29,3.78C22.13,38.2,20.65,37.61,20.06,35.74z"/>
	<path fill="#262423" d="M36.23,13.43c0.67,0,1.22-0.48,1.22-1.06c0-0.58-0.55-1.06-1.22-1.06c-0.67,0-1.22,0.48-1.22,1.06
		C35.01,12.96,35.56,13.43,36.23,13.43z"/>
	<path fill="#FFFFFF" d="M36.23,11.56c0.52,0,0.94,0.36,0.94,0.81c0,0.45-0.42,0.81-0.94,0.81c-0.52,0-0.94-0.36-0.94-0.81
		C35.29,11.92,35.71,11.56,36.23,11.56z"/>
	<path fill="#0093D2" d="M31.96,50.95c-2.59,0-4.7-2.34-4.7-5.22c0-2.88,2.11-5.22,4.7-5.22c2.59,0,4.7,2.34,4.7,5.22
		C36.66,48.6,34.55,50.95,31.96,50.95z"/>
</g>
</svg>
